<?xml version="1.0" encoding="UTF-8" standalone="no"?>
<!-- Created with Inkscape (http://www.inkscape.org/) -->

<svg
   xmlns:dc="http://purl.org/dc/elements/1.1/"
   xmlns:cc="http://creativecommons.org/ns#"
   xmlns:rdf="http://www.w3.org/1999/02/22-rdf-syntax-ns#"
   xmlns:svg="http://www.w3.org/2000/svg"
   xmlns="http://www.w3.org/2000/svg"
   xmlns:xlink="http://www.w3.org/1999/xlink"
   xmlns:sodipodi="http://sodipodi.sourceforge.net/DTD/sodipodi-0.dtd"
   xmlns:inkscape="http://www.inkscape.org/namespaces/inkscape"
   width="512.05786"
   height="512.56726"
   id="svg2"
   version="1.1"
   inkscape:version="0.48.3.1 r9886"
   sodipodi:docname="holo_new.svg"
   inkscape:export-filename="C:\Users\Jun\Documents\Shooter\Assets\Images\holo_new.png"
   inkscape:export-xdpi="45"
   inkscape:export-ydpi="45">
  <defs
     id="defs4">
    <filter
       inkscape:collect="always"
       id="filter3932"
       x="-0.42580646"
       width="1.8516129"
       y="-0.42580646"
       height="1.8516129"
       color-interpolation-filters="sRGB">
      <feGaussianBlur
         inkscape:collect="always"
         stdDeviation="3.3959332"
         id="feGaussianBlur3934" />
    </filter>
    <filter
       inkscape:collect="always"
       id="filter3781"
       x="-0.16149004"
       width="1.32298"
       y="-0.16126873"
       height="1.3225375"
       color-interpolation-filters="sRGB">
      <feGaussianBlur
         inkscape:collect="always"
         stdDeviation="24.977591"
         id="feGaussianBlur3783" />
    </filter>
    <filter
       inkscape:collect="always"
       id="filter3819"
       x="-0.17391235"
       width="1.3478247"
       y="-0.17367402"
       height="1.347348"
       color-interpolation-filters="sRGB">
      <feGaussianBlur
         inkscape:collect="always"
         stdDeviation="26.898945"
         id="feGaussianBlur3821" />
    </filter>
    <filter
       inkscape:collect="always"
       id="filter3853"
       color-interpolation-filters="sRGB">
      <feGaussianBlur
         inkscape:collect="always"
         stdDeviation="4.3349752"
         id="feGaussianBlur3855" />
    </filter>
  </defs>
  <sodipodi:namedview
     id="base"
     pagecolor="#ffffff"
     bordercolor="#666666"
     borderopacity="1.0"
     inkscape:pageopacity="0.0"
     inkscape:pageshadow="2"
     inkscape:zoom="0.35355339"
     inkscape:cx="174.3565"
     inkscape:cy="222.75785"
     inkscape:document-units="px"
     inkscape:current-layer="layer1"
     showgrid="false"
     showguides="true"
     inkscape:guide-bbox="true"
     inkscape:snap-bbox="true"
     inkscape:snap-bbox-midpoints="true"
     inkscape:snap-bbox-edge-midpoints="false"
     inkscape:snap-nodes="false"
     inkscape:bbox-paths="true"
     inkscape:window-width="1920"
     inkscape:window-height="1028"
     inkscape:window-x="-8"
     inkscape:window-y="-8"
     inkscape:window-maximized="1"
     inkscape:snap-grids="false"
     inkscape:bbox-nodes="false"
     inkscape:snap-to-guides="true"
     fit-margin-top="0"
     fit-margin-left="0"
     fit-margin-right="0"
     fit-margin-bottom="0">
    <inkscape:grid
       type="xygrid"
       id="grid3787"
       empspacing="5"
       visible="true"
       enabled="true"
       snapvisiblegridlinesonly="true"
       originx="-138.97108px"
       originy="-403.71636px" />
    <sodipodi:guide
       orientation="0,1"
       position="256.02893,256.28363"
       id="guide3789" />
    <sodipodi:guide
       orientation="1,0"
       position="256.02893,386.28364"
       id="guide3791" />
  </sodipodi:namedview>
  <metadata
     id="metadata7">
    <rdf:RDF>
      <cc:Work
         rdf:about="">
        <dc:format>image/svg+xml</dc:format>
        <dc:type
           rdf:resource="http://purl.org/dc/dcmitype/StillImage" />
        <dc:title></dc:title>
      </cc:Work>
    </rdf:RDF>
  </metadata>
  <g
     inkscape:label="レイヤー 1"
     inkscape:groupmode="layer"
     id="layer1"
     transform="translate(-138.97108,-136.07856)">
    <use
       x="0"
       y="0"
       xlink:href="#g3803"
       id="use3823"
       width="382.9429"
       height="383.45233" />
    <use
       x="0"
       y="0"
       xlink:href="#g3803"
       id="use3785"
       width="382.9429"
       height="383.45233" />
    <g
       id="g3803"
       transform="translate(0.823605,0.54372154)"
       style="filter:url(#filter3819)">
      <path
         sodipodi:type="arc"
         style="fill:none;stroke:#ff0000;stroke-width:19;stroke-miterlimit:4;stroke-opacity:1;stroke-dasharray:none"
         id="path3805"
         sodipodi:cx="400"
         sodipodi:cy="398.07648"
         sodipodi:rx="157.14285"
         sodipodi:ry="157.14285"
         d="m 557.14285,398.07648 c 0,86.7876 -70.35525,157.14285 -157.14285,157.14285 -86.7876,0 -157.14285,-70.35525 -157.14285,-157.14285 0,-86.7876 70.35525,-157.14286 157.14285,-157.14286 86.7876,0 157.14285,70.35526 157.14285,157.14286 z"
         transform="translate(-5,-5.7142944)" />
      <path
         style="fill-opacity:1;stroke:#ff0000;stroke-width:11.73600006;stroke-linecap:square;stroke-linejoin:miter;stroke-miterlimit:4;stroke-opacity:1;stroke-dasharray:none"
         d="m 223.13569,392.36218 -14.56275,0"
         id="path3807"
         inkscape:connector-curvature="0" />
      <use
         x="0"
         y="0"
         xlink:href="#path3777"
         id="use3809"
         transform="translate(356.64416,2.6171874e-6)"
         width="744.09448"
         height="1052.3622"
         style="fill-opacity:1" />
      <use
         x="0"
         y="0"
         xlink:href="#use3779"
         id="use3811"
         transform="matrix(0,-1,1,0,2.6378174,785.74016)"
         width="744.09448"
         height="1052.3622"
         style="fill-opacity:1" />
      <use
         x="0"
         y="0"
         xlink:href="#use3781"
         id="use3813"
         transform="translate(1.7187409e-8,357.15357)"
         width="744.09448"
         height="1052.3622"
         style="fill:#ff0000;fill-opacity:1" />
      <path
         sodipodi:type="arc"
         style="fill:#ff0000;fill-opacity:1;stroke:none"
         id="path3815"
         sodipodi:cx="411.20038"
         sodipodi:cy="405.82071"
         sodipodi:rx="38.792488"
         sodipodi:ry="38.792488"
         d="m 449.99287,405.82071 c 0,21.4245 -17.36799,38.79249 -38.79249,38.79249 -21.4245,0 -38.79249,-17.36799 -38.79249,-38.79249 0,-21.4245 17.36799,-38.79249 38.79249,-38.79249 21.4245,0 38.79249,17.36799 38.79249,38.79249 z"
         transform="matrix(0.34528185,0,0,0.34528185,253.01997,252.23966)" />
    </g>
    <g
       id="g3795"
       transform="translate(0.823605,0.54372154)">
      <path
         transform="translate(-5,-5.7142944)"
         d="m 557.14285,398.07648 c 0,86.7876 -70.35525,157.14285 -157.14285,157.14285 -86.7876,0 -157.14285,-70.35525 -157.14285,-157.14285 0,-86.7876 70.35525,-157.14286 157.14285,-157.14286 86.7876,0 157.14285,70.35526 157.14285,157.14286 z"
         sodipodi:ry="157.14285"
         sodipodi:rx="157.14285"
         sodipodi:cy="398.07648"
         sodipodi:cx="400"
         id="path3007"
         style="fill:none;stroke:#ff0000;stroke-width:19;stroke-miterlimit:4;stroke-opacity:1;stroke-dasharray:none"
         sodipodi:type="arc" />
      <path
         inkscape:connector-curvature="0"
         id="path3777"
         d="m 223.13569,392.36218 -14.56275,0"
         style="fill-opacity:1;stroke:#ff0000;stroke-width:11.73600006;stroke-linecap:square;stroke-linejoin:miter;stroke-miterlimit:4;stroke-opacity:1;stroke-dasharray:none" />
      <use
         style="fill-opacity:1"
         height="1052.3622"
         width="744.09448"
         transform="translate(356.64416,2.6171874e-6)"
         id="use3779"
         xlink:href="#path3777"
         y="0"
         x="0" />
      <use
         style="fill-opacity:1"
         height="1052.3622"
         width="744.09448"
         transform="matrix(0,-1,1,0,2.6378174,785.74016)"
         id="use3781"
         xlink:href="#use3779"
         y="0"
         x="0" />
      <use
         style="fill:#ff0000;fill-opacity:1"
         height="1052.3622"
         width="744.09448"
         transform="translate(1.7187409e-8,357.15357)"
         id="use3783"
         xlink:href="#use3781"
         y="0"
         x="0" />
      <path
         transform="matrix(0.34528185,0,0,0.34528185,253.01997,252.23966)"
         d="m 449.99287,405.82071 c 0,21.4245 -17.36799,38.79249 -38.79249,38.79249 -21.4245,0 -38.79249,-17.36799 -38.79249,-38.79249 0,-21.4245 17.36799,-38.79249 38.79249,-38.79249 21.4245,0 38.79249,17.36799 38.79249,38.79249 z"
         sodipodi:ry="38.792488"
         sodipodi:rx="38.792488"
         sodipodi:cy="405.82071"
         sodipodi:cx="411.20038"
         id="path3785"
         style="fill:#ff0000;fill-opacity:1;stroke:none"
         sodipodi:type="arc" />
    </g>
    <path
       transform="translate(-4.1763976,-5.1705703)"
       d="m 557.14285,398.07648 c 0,86.7876 -70.35525,157.14285 -157.14285,157.14285 -86.7876,0 -157.14285,-70.35525 -157.14285,-157.14285 0,-86.7876 70.35525,-157.14286 157.14285,-157.14286 86.7876,0 157.14285,70.35526 157.14285,157.14286 z"
       sodipodi:ry="157.14285"
       sodipodi:rx="157.14285"
       sodipodi:cy="398.07648"
       sodipodi:cx="400"
       id="path3811"
       style="fill:none;stroke:#ffa397;stroke-width:7.30000019;stroke-miterlimit:4;stroke-opacity:1;stroke-dasharray:none;filter:url(#filter3853)"
       sodipodi:type="arc" />
    <path
       sodipodi:type="arc"
       style="fill:#ffa397;fill-opacity:1;stroke:none;filter:url(#filter3932)"
       id="path3906"
       sodipodi:cx="162.69608"
       sodipodi:cy="170.99039"
       sodipodi:rx="9.5703573"
       sodipodi:ry="9.5703573"
       d="m 172.26643,170.99039 c 0,5.28556 -4.28479,9.57035 -9.57035,9.57035 -5.28557,0 -9.57036,-4.28479 -9.57036,-9.57035 0,-5.28557 4.28479,-9.57036 9.57036,-9.57036 5.28556,0 9.57035,4.28479 9.57035,9.57036 z"
       transform="translate(232.30392,221.3718)" />
  </g>
</svg>
