<?xml version="1.0" encoding="UTF-8" standalone="no"?>
<!-- Created with Inkscape (http://www.inkscape.org/) -->

<svg
   xmlns:dc="http://purl.org/dc/elements/1.1/"
   xmlns:cc="http://creativecommons.org/ns#"
   xmlns:rdf="http://www.w3.org/1999/02/22-rdf-syntax-ns#"
   xmlns:svg="http://www.w3.org/2000/svg"
   xmlns="http://www.w3.org/2000/svg"
   xmlns:sodipodi="http://sodipodi.sourceforge.net/DTD/sodipodi-0.dtd"
   xmlns:inkscape="http://www.inkscape.org/namespaces/inkscape"
   width="531.56464"
   height="703.23303"
   id="svg2"
   version="1.1"
   inkscape:version="0.48.4 r9939"
   sodipodi:docname="touch.svg">
  <defs
     id="defs4" />
  <sodipodi:namedview
     id="base"
     pagecolor="#ffffff"
     bordercolor="#666666"
     borderopacity="1.0"
     inkscape:pageopacity="0.0"
     inkscape:pageshadow="2"
     inkscape:zoom="0.63890575"
     inkscape:cx="655.07023"
     inkscape:cy="402.34936"
     inkscape:document-units="px"
     inkscape:current-layer="layer1"
     showgrid="false"
     inkscape:snap-smooth-nodes="false"
     inkscape:window-width="1920"
     inkscape:window-height="1031"
     inkscape:window-x="1592"
     inkscape:window-y="-8"
     inkscape:window-maximized="1"
     fit-margin-top="0"
     fit-margin-left="0"
     fit-margin-right="0"
     fit-margin-bottom="0" />
  <metadata
     id="metadata7">
    <rdf:RDF>
      <cc:Work
         rdf:about="">
        <dc:format>image/svg+xml</dc:format>
        <dc:type
           rdf:resource="http://purl.org/dc/dcmitype/StillImage" />
        <dc:title></dc:title>
      </cc:Work>
    </rdf:RDF>
  </metadata>
  <g
     inkscape:label="レイヤー 1"
     inkscape:groupmode="layer"
     id="layer1"
     transform="translate(-92.869522,-320.14105)">
    <rect
       style="fill:#000000;fill-opacity:1;stroke:none"
       id="rect3841"
       width="531.56464"
       height="703.23303"
       x="92.869522"
       y="320.14105" />
    <path
       id="path3763"
       style="fill:#4a96ff;fill-opacity:1;stroke:#ffffff;stroke-width:37.53499985;stroke-miterlimit:4;stroke-opacity:1;stroke-dasharray:none"
       d="m 571.56519,747.65124 c 0,119.74024 -97.06864,216.80888 -216.80889,216.80888 -119.74025,0 -216.80889,-97.06864 -216.80889,-216.80888 l 0,-10e-6 0.48045,0.48046 0,-142.01888 -0.48045,-2.43645 0,-1e-5 c 0,-119.74024 97.06864,-216.80888 216.80889,-216.80888 119.74025,0 216.80889,97.06864 216.80889,216.80888 z"
       inkscape:connector-curvature="0"
       sodipodi:nodetypes="cssccccsscc" />
    <path
       sodipodi:nodetypes="cssccccsscc"
       inkscape:connector-curvature="0"
       d="m 600,44.707853 c 0,-123.0806 -99.77654,-222.857143 -222.85715,-222.857143 -123.0806,0 -222.85714,99.776543 -222.85714,222.857143 l 0,1e-5 0.49384,-0.493864 0,145.980741 -0.49384,2.50442 0,1e-5 c 0,123.0806 99.77654,222.85714 222.85714,222.85714 C 500.22346,415.55631 600,315.77977 600,192.69917 z"
       style="fill:none;stroke:#000000;stroke-width:17.06191444;stroke-miterlimit:4;stroke-opacity:1;stroke-dasharray:none"
       id="path3784"
       transform="matrix(0.95294118,0,0,-0.95294118,-4.6386559,788.78126)" />
    <path
       style="fill:#ffffff;fill-opacity:1;stroke:none"
       d="m 353.46875,598.71875 c -43.4002,1.09955 -78.25,36.64731 -78.25,80.3125 0,44.35828 35.98547,80.3125 80.34375,80.3125 44.35828,0 80.3125,-35.95422 80.3125,-80.3125 0,-44.35828 -35.95422,-80.3125 -80.3125,-80.3125 -0.6931,0 -1.40486,-0.0175 -2.09375,0 z m 34.3125,48.4375 c 5.36455,6e-5 10.41663,0.61464 15.15625,1.8125 l 0,9.375 c -6.04171,-2.29162 -11.0417,-3.43745 -15,-3.4375 -3.20315,5e-5 -6.15367,0.86203 -8.875,2.59375 -2.72137,1.73182 -4.7995,4.474 -6.21875,8.25 -1.41929,3.77608 -2.12501,7.7917 -2.125,12.0625 -10e-6,6.43231 1.66144,11.70575 4.96875,15.78125 3.30727,4.07553 7.47393,6.09376 12.5,6.09375 4.40101,10e-6 9.30725,-1.26041 14.75,-3.8125 l 0,8.875 c -6.09379,2.13542 -11.83858,3.1875 -17.28125,3.1875 -5.41669,0 -10.25002,-1.26042 -14.46875,-3.8125 -4.21876,-2.55208 -7.44272,-6.18228 -9.65625,-10.84375 -2.21354,-4.66144 -3.3125,-9.92706 -3.3125,-15.8125 0,-5.59892 1.03646,-10.67965 3.09375,-15.25 2.05728,-4.57026 5.08332,-8.23432 9.09375,-10.96875 4.0104,-2.73432 9.79685,-4.09369 17.375,-4.09375 z m -74.625,1.5 38.53125,0 0,7.6875 -13.46875,0 0,42.40625 13.46875,0 0,7.71875 -38.53125,0 0,-7.71875 13.46875,0 0,-42.40625 -13.46875,0 0,-7.6875 z"
       id="path3790"
       inkscape:connector-curvature="0" />
    <g
       id="g3796"
       transform="matrix(1.0730464,-0.10151139,0.10151139,1.0730464,-98.452267,-4.3069557)">
      <path
         inkscape:transform-center-y="-4.5517163"
         inkscape:transform-center-x="-4.5517144"
         transform="matrix(-0.25881905,0.96592583,-0.96592583,-0.25881905,941.91067,411.39902)"
         d="m 326.27894,453.26928 -60.92135,0 30.46068,-52.75944 z"
         inkscape:randomized="0"
         inkscape:rounded="0"
         inkscape:flatsided="true"
         sodipodi:arg2="1.5707963"
         sodipodi:arg1="0.52359878"
         sodipodi:r2="17.586479"
         sodipodi:r1="35.172958"
         sodipodi:cy="435.6828"
         sodipodi:cx="295.81827"
         sodipodi:sides="3"
         id="path3792"
         style="fill:#ffffff;fill-opacity:1;stroke:none"
         sodipodi:type="star" />
      <path
         sodipodi:type="star"
         style="fill:#ffffff;fill-opacity:1;stroke:none"
         id="path3794"
         sodipodi:sides="3"
         sodipodi:cx="295.81827"
         sodipodi:cy="435.6828"
         sodipodi:r1="35.172958"
         sodipodi:r2="17.586479"
         sodipodi:arg1="0.52359878"
         sodipodi:arg2="1.5707963"
         inkscape:flatsided="true"
         inkscape:rounded="0"
         inkscape:randomized="0"
         d="m 326.27894,453.26928 -60.92135,0 30.46068,-52.75944 z"
         transform="matrix(-0.25881905,0.96592583,-0.96592583,-0.25881905,990.43113,366.00891)"
         inkscape:transform-center-x="-4.5517144"
         inkscape:transform-center-y="-4.5517163" />
    </g>
    <g
       transform="matrix(1.0730464,0.10151139,0.10151139,-1.0730464,-98.452267,1358.5973)"
       id="g3818">
      <path
         sodipodi:type="star"
         style="fill:#ffffff;fill-opacity:1;stroke:none"
         id="path3820"
         sodipodi:sides="3"
         sodipodi:cx="295.81827"
         sodipodi:cy="435.6828"
         sodipodi:r1="35.172958"
         sodipodi:r2="17.586479"
         sodipodi:arg1="0.52359878"
         sodipodi:arg2="1.5707963"
         inkscape:flatsided="true"
         inkscape:rounded="0"
         inkscape:randomized="0"
         d="m 326.27894,453.26928 -60.92135,0 30.46068,-52.75944 z"
         transform="matrix(-0.25881905,0.96592583,-0.96592583,-0.25881905,941.91067,411.39902)"
         inkscape:transform-center-x="-4.5517144"
         inkscape:transform-center-y="-4.5517163" />
      <path
         inkscape:transform-center-y="-4.5517163"
         inkscape:transform-center-x="-4.5517144"
         transform="matrix(-0.25881905,0.96592583,-0.96592583,-0.25881905,990.43113,366.00891)"
         d="m 326.27894,453.26928 -60.92135,0 30.46068,-52.75944 z"
         inkscape:randomized="0"
         inkscape:rounded="0"
         inkscape:flatsided="true"
         sodipodi:arg2="1.5707963"
         sodipodi:arg1="0.52359878"
         sodipodi:r2="17.586479"
         sodipodi:r1="35.172958"
         sodipodi:cy="435.6828"
         sodipodi:cx="295.81827"
         sodipodi:sides="3"
         id="path3822"
         style="fill:#ffffff;fill-opacity:1;stroke:none"
         sodipodi:type="star" />
    </g>
    <g
       transform="matrix(-1.0730464,-0.10151139,-0.10151139,1.0730464,811.26025,-4.3069557)"
       id="g3824">
      <path
         sodipodi:type="star"
         style="fill:#ffffff;fill-opacity:1;stroke:none"
         id="path3826"
         sodipodi:sides="3"
         sodipodi:cx="295.81827"
         sodipodi:cy="435.6828"
         sodipodi:r1="35.172958"
         sodipodi:r2="17.586479"
         sodipodi:arg1="0.52359878"
         sodipodi:arg2="1.5707963"
         inkscape:flatsided="true"
         inkscape:rounded="0"
         inkscape:randomized="0"
         d="m 326.27894,453.26928 -60.92135,0 30.46068,-52.75944 z"
         transform="matrix(-0.25881905,0.96592583,-0.96592583,-0.25881905,941.91067,411.39902)"
         inkscape:transform-center-x="-4.5517144"
         inkscape:transform-center-y="-4.5517163" />
      <path
         inkscape:transform-center-y="-4.5517163"
         inkscape:transform-center-x="-4.5517144"
         transform="matrix(-0.25881905,0.96592583,-0.96592583,-0.25881905,990.43113,366.00891)"
         d="m 326.27894,453.26928 -60.92135,0 30.46068,-52.75944 z"
         inkscape:randomized="0"
         inkscape:rounded="0"
         inkscape:flatsided="true"
         sodipodi:arg2="1.5707963"
         sodipodi:arg1="0.52359878"
         sodipodi:r2="17.586479"
         sodipodi:r1="35.172958"
         sodipodi:cy="435.6828"
         sodipodi:cx="295.81827"
         sodipodi:sides="3"
         id="path3828"
         style="fill:#ffffff;fill-opacity:1;stroke:none"
         sodipodi:type="star" />
    </g>
    <g
       id="g3830"
       transform="matrix(-1.0730464,0.10151139,-0.10151139,-1.0730464,811.26025,1358.5973)">
      <path
         inkscape:transform-center-y="-4.5517163"
         inkscape:transform-center-x="-4.5517144"
         transform="matrix(-0.25881905,0.96592583,-0.96592583,-0.25881905,941.91067,411.39902)"
         d="m 326.27894,453.26928 -60.92135,0 30.46068,-52.75944 z"
         inkscape:randomized="0"
         inkscape:rounded="0"
         inkscape:flatsided="true"
         sodipodi:arg2="1.5707963"
         sodipodi:arg1="0.52359878"
         sodipodi:r2="17.586479"
         sodipodi:r1="35.172958"
         sodipodi:cy="435.6828"
         sodipodi:cx="295.81827"
         sodipodi:sides="3"
         id="path3832"
         style="fill:#ffffff;fill-opacity:1;stroke:none"
         sodipodi:type="star" />
      <path
         sodipodi:type="star"
         style="fill:#ffffff;fill-opacity:1;stroke:none"
         id="path3834"
         sodipodi:sides="3"
         sodipodi:cx="295.81827"
         sodipodi:cy="435.6828"
         sodipodi:r1="35.172958"
         sodipodi:r2="17.586479"
         sodipodi:arg1="0.52359878"
         sodipodi:arg2="1.5707963"
         inkscape:flatsided="true"
         inkscape:rounded="0"
         inkscape:randomized="0"
         d="m 326.27894,453.26928 -60.92135,0 30.46068,-52.75944 z"
         transform="matrix(-0.25881905,0.96592583,-0.96592583,-0.25881905,990.43113,366.00891)"
         inkscape:transform-center-x="-4.5517144"
         inkscape:transform-center-y="-4.5517163" />
    </g>
  </g>
</svg>
